<svg width="141" height="40" viewBox="0 0 141 40" fill="none" xmlns="http://www.w3.org/2000/svg">
<rect x="1" y="1" width="38" height="38" stroke="#7FB800" stroke-width="2"/>
<path d="M10 10H16.6667V16.6667H23.3333V23.3333H30V30H10V10V10" fill="#7FB800"/>
<path d="M53.98 30V9H63.1C64.42 9 65.57 9.23 66.55 9.69C67.53 10.15 68.29 10.8 68.83 11.64C69.37 12.48 69.64 13.47 69.64 14.61V14.97C69.64 16.23 69.34 17.25 68.74 18.03C68.14 18.81 67.4 19.38 66.52 19.74V20.28C67.32 20.32 67.94 20.595 68.38 21.105C68.82 21.615 69.04 22.29 69.04 23.13V30H65.08V23.7C65.08 23.22 64.955 22.83 64.705 22.53C64.455 22.23 64.04 22.08 63.46 22.08H57.94V30H53.98ZM57.94 18.48H62.68C63.62 18.48 64.355 18.225 64.885 17.715C65.415 17.205 65.68 16.53 65.68 15.69V15.39C65.68 14.55 65.42 13.875 64.9 13.365C64.38 12.855 63.64 12.6 62.68 12.6H57.94V18.48ZM70 30L75.52 9H82.42L87.94 30H83.86L82.72 25.38H75.22L74.08 30H70ZM76.15 21.72H81.79L79.24 11.49H78.7L76.15 21.72ZM96.76 30.42C94.16 30.42 92.1 29.695 90.58 28.245C89.06 26.795 88.3 24.72 88.3 22.02V16.98C88.3 14.28 89.06 12.205 90.58 10.755C92.1 9.305 94.16 8.58 96.76 8.58C99.34 8.58 101.335 9.285 102.745 10.695C104.155 12.105 104.86 14.04 104.86 16.5V16.68H100.96V16.38C100.96 15.14 100.615 14.12 99.925 13.32C99.235 12.52 98.18 12.12 96.76 12.12C95.36 12.12 94.26 12.55 93.46 13.41C92.66 14.27 92.26 15.44 92.26 16.92V22.08C92.26 23.54 92.66 24.705 93.46 25.575C94.26 26.445 95.36 26.88 96.76 26.88C98.18 26.88 99.235 26.475 99.925 25.665C100.615 24.855 100.96 23.84 100.96 22.62V22.08H104.86V22.5C104.86 24.96 104.155 26.895 102.745 28.305C101.335 29.715 99.34 30.42 96.76 30.42ZM106.6 30V9H110.56V17.34H111.1L117.91 9H122.98L114.22 19.35L123.28 30H118.06L111.1 21.48H110.56V30H106.6ZM123.28 30V26.52H126.04V12.48H123.28V9H131.92C134.74 9 136.885 9.715 138.355 11.145C139.825 12.575 140.56 14.7 140.56 17.52V21.48C140.56 24.3 139.825 26.425 138.355 27.855C136.885 29.285 134.74 30 131.92 30H123.28ZM130 26.4H131.98C133.58 26.4 134.75 25.98 135.49 25.14C136.23 24.3 136.6 23.12 136.6 21.6V17.4C136.6 15.86 136.23 14.675 135.49 13.845C134.75 13.015 133.58 12.6 131.98 12.6H130V26.4Z" fill="#7FB800"/>
</svg>
